<svg width="62" height="65" viewBox="0 0 62 65" fill="none" xmlns="http://www.w3.org/2000/svg">
    <path d="M36 37H38V25H36M26 37L34.5 31L26 25V37Z" fill="black"/>
    <rect width="62" height="65" rx="10" fill="#F70808" fill-opacity="0.2"/>
    <path d="M18.6648 55.1364C18.0341 55.1364 17.4901 54.9972 17.0327 54.7188C16.5781 54.4375 16.2273 54.0455 15.9801 53.5426C15.7358 53.0369 15.6136 52.4489 15.6136 51.7784C15.6136 51.108 15.7358 50.517 15.9801 50.0057C16.2273 49.4915 16.571 49.0909 17.0114 48.804C17.4545 48.5142 17.9716 48.3693 18.5625 48.3693C18.9034 48.3693 19.2401 48.4261 19.5724 48.5398C19.9048 48.6534 20.2074 48.8381 20.4801 49.0938C20.7528 49.3466 20.9702 49.6818 21.1321 50.0994C21.294 50.517 21.375 51.0312 21.375 51.642V52.0682H16.3295V51.1989H20.3523C20.3523 50.8295 20.2784 50.5 20.1307 50.2102C19.9858 49.9205 19.7784 49.6918 19.5085 49.5241C19.2415 49.3565 18.9261 49.2727 18.5625 49.2727C18.1619 49.2727 17.8153 49.3722 17.5227 49.571C17.233 49.767 17.0099 50.0227 16.8537 50.3381C16.6974 50.6534 16.6193 50.9915 16.6193 51.3523V51.9318C16.6193 52.4261 16.7045 52.8452 16.875 53.1889C17.0483 53.5298 17.2884 53.7898 17.5952 53.9688C17.902 54.1449 18.2585 54.233 18.6648 54.233C18.929 54.233 19.1676 54.196 19.3807 54.1222C19.5966 54.0455 19.7827 53.9318 19.9389 53.7812C20.0952 53.6278 20.2159 53.4375 20.3011 53.2102L21.2727 53.483C21.1705 53.8125 20.9986 54.1023 20.7571 54.3523C20.5156 54.5994 20.2173 54.7926 19.8622 54.9318C19.5071 55.0682 19.108 55.1364 18.6648 55.1364ZM23.9105 51.0625V55H22.9048V48.4545H23.8764V49.4773H23.9616C24.1151 49.1449 24.348 48.8778 24.6605 48.6761C24.973 48.4716 25.3764 48.3693 25.8707 48.3693C26.3139 48.3693 26.7017 48.4602 27.0341 48.642C27.3665 48.821 27.625 49.0938 27.8097 49.4602C27.9943 49.8239 28.0866 50.2841 28.0866 50.8409V55H27.081V50.9091C27.081 50.3949 26.9474 49.9943 26.6804 49.7074C26.4134 49.4176 26.0469 49.2727 25.581 49.2727C25.2599 49.2727 24.973 49.3423 24.7202 49.4815C24.4702 49.6207 24.2727 49.8239 24.1278 50.0909C23.983 50.358 23.9105 50.6818 23.9105 51.0625ZM32.771 48.4545V49.3068H29.3789V48.4545H32.771ZM30.3675 46.8864H31.3732V53.125C31.3732 53.4091 31.4144 53.6222 31.4968 53.7642C31.582 53.9034 31.69 53.9972 31.8207 54.0455C31.9542 54.0909 32.0948 54.1136 32.2425 54.1136C32.3533 54.1136 32.4442 54.108 32.5153 54.0966C32.5863 54.0824 32.6431 54.071 32.6857 54.0625L32.8903 54.9659C32.8221 54.9915 32.7269 55.017 32.6048 55.0426C32.4826 55.071 32.3278 55.0852 32.1403 55.0852C31.8562 55.0852 31.5778 55.0241 31.305 54.902C31.0352 54.7798 30.8107 54.5938 30.6317 54.3438C30.4556 54.0938 30.3675 53.7784 30.3675 53.3977V46.8864ZM36.9577 55.1364C36.3271 55.1364 35.783 54.9972 35.3256 54.7188C34.8711 54.4375 34.5202 54.0455 34.2731 53.5426C34.0288 53.0369 33.9066 52.4489 33.9066 51.7784C33.9066 51.108 34.0288 50.517 34.2731 50.0057C34.5202 49.4915 34.864 49.0909 35.3043 48.804C35.7475 48.5142 36.2646 48.3693 36.8555 48.3693C37.1964 48.3693 37.533 48.4261 37.8654 48.5398C38.1978 48.6534 38.5004 48.8381 38.7731 49.0938C39.0458 49.3466 39.2631 49.6818 39.4251 50.0994C39.587 50.517 39.668 51.0312 39.668 51.642V52.0682H34.6225V51.1989H38.6452C38.6452 50.8295 38.5714 50.5 38.4237 50.2102C38.2788 49.9205 38.0714 49.6918 37.8015 49.5241C37.5344 49.3565 37.2191 49.2727 36.8555 49.2727C36.4549 49.2727 36.1083 49.3722 35.8157 49.571C35.5259 49.767 35.3029 50.0227 35.1467 50.3381C34.9904 50.6534 34.9123 50.9915 34.9123 51.3523V51.9318C34.9123 52.4261 34.9975 52.8452 35.168 53.1889C35.3413 53.5298 35.5813 53.7898 35.8881 53.9688C36.195 54.1449 36.5515 54.233 36.9577 54.233C37.2219 54.233 37.4606 54.196 37.6737 54.1222C37.8896 54.0455 38.0756 53.9318 38.2319 53.7812C38.3881 53.6278 38.5089 53.4375 38.5941 53.2102L39.5657 53.483C39.4634 53.8125 39.2915 54.1023 39.0501 54.3523C38.8086 54.5994 38.5103 54.7926 38.1552 54.9318C37.8001 55.0682 37.4009 55.1364 36.9577 55.1364ZM41.1978 55V48.4545H42.1694V49.4432H42.2376C42.3569 49.1193 42.5728 48.8565 42.8853 48.6548C43.1978 48.4531 43.5501 48.3523 43.9421 48.3523C44.016 48.3523 44.1083 48.3537 44.2191 48.3565C44.3299 48.3594 44.4137 48.3636 44.4705 48.3693V49.392C44.4364 49.3835 44.3583 49.3707 44.2362 49.3537C44.1168 49.3338 43.9904 49.3239 43.8569 49.3239C43.5387 49.3239 43.2546 49.3906 43.0046 49.5241C42.7575 49.6548 42.5614 49.8366 42.4165 50.0696C42.2745 50.2997 42.2035 50.5625 42.2035 50.858V55H41.1978Z" fill="black"/>
    </svg>
    