<svg width="62" height="65" viewBox="0 0 62 65" fill="none" xmlns="http://www.w3.org/2000/svg">
    <path d="M19.0568 62V53.2727H22.108C22.7159 53.2727 23.2173 53.3778 23.6122 53.5881C24.0071 53.7955 24.3011 54.0753 24.4943 54.4276C24.6875 54.777 24.7841 55.1648 24.7841 55.5909C24.7841 55.9659 24.7173 56.2756 24.5838 56.5199C24.4531 56.7642 24.2798 56.9574 24.0639 57.0994C23.8509 57.2415 23.6193 57.3466 23.3693 57.4148V57.5C23.6364 57.517 23.9048 57.6108 24.1747 57.7812C24.4446 57.9517 24.6705 58.196 24.8523 58.5142C25.0341 58.8324 25.125 59.2216 25.125 59.6818C25.125 60.1193 25.0256 60.5128 24.8267 60.8622C24.6278 61.2116 24.3139 61.4886 23.8849 61.6932C23.456 61.8977 22.8977 62 22.2102 62H19.0568ZM20.1136 61.0625H22.2102C22.9006 61.0625 23.3906 60.929 23.6804 60.6619C23.973 60.392 24.1193 60.0653 24.1193 59.6818C24.1193 59.3864 24.044 59.1136 23.8935 58.8636C23.7429 58.6108 23.5284 58.4091 23.25 58.2585C22.9716 58.1051 22.642 58.0284 22.2614 58.0284H20.1136V61.0625ZM20.1136 57.108H22.0739C22.392 57.108 22.679 57.0455 22.9347 56.9205C23.1932 56.7955 23.3977 56.6193 23.5483 56.392C23.7017 56.1648 23.7784 55.8977 23.7784 55.5909C23.7784 55.2074 23.6449 54.8821 23.3778 54.6151C23.1108 54.3452 22.6875 54.2102 22.108 54.2102H20.1136V57.108ZM28.6513 62.1534C28.2365 62.1534 27.8601 62.0753 27.522 61.919C27.1839 61.7599 26.9155 61.5312 26.7166 61.233C26.5178 60.9318 26.4183 60.5682 26.4183 60.142C26.4183 59.767 26.4922 59.4631 26.6399 59.2301C26.7876 58.9943 26.9851 58.8097 27.2322 58.6761C27.4794 58.5426 27.7521 58.4432 28.0504 58.3778C28.3516 58.3097 28.6541 58.2557 28.9581 58.2159C29.3558 58.1648 29.6783 58.1264 29.9254 58.1009C30.1754 58.0724 30.3572 58.0256 30.4709 57.9602C30.5874 57.8949 30.6456 57.7812 30.6456 57.6193V57.5852C30.6456 57.1648 30.5305 56.8381 30.3004 56.6051C30.0732 56.3722 29.728 56.2557 29.2649 56.2557C28.7848 56.2557 28.4084 56.3608 28.1357 56.571C27.8629 56.7812 27.6712 57.0057 27.5604 57.2443L26.6058 56.9034C26.7763 56.5057 27.0036 56.196 27.2876 55.9744C27.5746 55.75 27.8871 55.5937 28.2251 55.5057C28.5661 55.4148 28.9013 55.3693 29.2308 55.3693C29.4411 55.3693 29.6825 55.3949 29.9553 55.446C30.2308 55.4943 30.4964 55.5952 30.7521 55.7486C31.0107 55.902 31.2251 56.1335 31.3956 56.4432C31.5661 56.7528 31.6513 57.1676 31.6513 57.6875V62H30.6456V61.1136H30.5945C30.5263 61.2557 30.4126 61.4077 30.2536 61.5696C30.0945 61.7315 29.8828 61.8693 29.6186 61.983C29.3544 62.0966 29.032 62.1534 28.6513 62.1534ZM28.8047 61.25C29.2024 61.25 29.5376 61.1719 29.8104 61.0156C30.0859 60.8594 30.2933 60.6577 30.4325 60.4105C30.5746 60.1634 30.6456 59.9034 30.6456 59.6307V58.7102C30.603 58.7614 30.5092 58.8082 30.3643 58.8509C30.2223 58.8906 30.0575 58.9261 29.87 58.9574C29.6854 58.9858 29.505 59.0114 29.3288 59.0341C29.1555 59.054 29.0149 59.071 28.907 59.0852C28.6456 59.1193 28.4013 59.1747 28.174 59.2514C27.9496 59.3253 27.7678 59.4375 27.6286 59.5881C27.4922 59.7358 27.424 59.9375 27.424 60.1932C27.424 60.5426 27.5533 60.8068 27.8118 60.9858C28.0732 61.1619 28.4041 61.25 28.8047 61.25ZM36.146 62.1364C35.5323 62.1364 35.0039 61.9915 34.5607 61.7017C34.1175 61.4119 33.7766 61.0128 33.538 60.5043C33.2994 59.9957 33.18 59.4148 33.18 58.7614C33.18 58.0966 33.3022 57.5099 33.5465 57.0014C33.7937 56.4901 34.1374 56.0909 34.5778 55.804C35.021 55.5142 35.538 55.3693 36.1289 55.3693C36.5891 55.3693 37.0039 55.4545 37.3732 55.625C37.7425 55.7955 38.0451 56.0341 38.2809 56.3409C38.5167 56.6477 38.663 57.0057 38.7198 57.4148H37.7141C37.6374 57.1165 37.467 56.8523 37.2028 56.6222C36.9414 56.3892 36.5891 56.2727 36.146 56.2727C35.7539 56.2727 35.4102 56.375 35.1147 56.5795C34.8221 56.7812 34.5934 57.0668 34.4286 57.4361C34.2667 57.8026 34.1857 58.233 34.1857 58.7273C34.1857 59.233 34.2653 59.6733 34.4244 60.0483C34.5863 60.4233 34.8136 60.7145 35.1062 60.9219C35.4016 61.1293 35.7482 61.233 36.146 61.233C36.4073 61.233 36.6445 61.1875 36.8576 61.0966C37.0707 61.0057 37.2511 60.875 37.3988 60.7045C37.5465 60.5341 37.6516 60.3295 37.7141 60.0909H38.7198C38.663 60.4773 38.5224 60.8253 38.2979 61.1349C38.0763 61.4418 37.7823 61.6861 37.4158 61.8679C37.0522 62.0469 36.6289 62.1364 36.146 62.1364ZM41.1275 59.6136L41.1104 58.3693H41.315L44.1786 55.4545H45.4229L42.3718 58.5398H42.2866L41.1275 59.6136ZM40.19 62V53.2727H41.1957V62H40.19ZM44.3491 62L41.7923 58.7614L42.5082 58.0625L45.6275 62H44.3491Z" fill="black"/>
    <rect width="62" height="65" rx="10" fill="#F70808" fill-opacity="0.2"/>
    <path d="M34 26H31V40H34V26ZM29 26L18 33L29 40V26ZM39 26H36V40H39V26Z" fill="black"/>
    </svg>
    