<svg width="62" height="65" viewBox="0 0 62 65" fill="none" xmlns="http://www.w3.org/2000/svg">
    <path d="M37 37H39V25H37M27 37L35.5 31L27 25V37Z" fill="black"/>
    <rect width="62" height="65" rx="10" fill="#F70808" fill-opacity="0.2"/>
    <path d="M26.9773 47.2727V56H25.9545L21.1989 49.1477H21.1136V56H20.0568V47.2727H21.0795L25.8523 54.142H25.9375V47.2727H26.9773ZM31.6999 56.1364C31.0692 56.1364 30.5252 55.9972 30.0678 55.7188C29.6133 55.4375 29.2624 55.0455 29.0153 54.5426C28.771 54.0369 28.6488 53.4489 28.6488 52.7784C28.6488 52.108 28.771 51.517 29.0153 51.0057C29.2624 50.4915 29.6062 50.0909 30.0465 49.804C30.4897 49.5142 31.0067 49.3693 31.5977 49.3693C31.9386 49.3693 32.2752 49.4261 32.6076 49.5398C32.94 49.6534 33.2425 49.8381 33.5153 50.0938C33.788 50.3466 34.0053 50.6818 34.1673 51.0994C34.3292 51.517 34.4102 52.0312 34.4102 52.642V53.0682H29.3647V52.1989H33.3874C33.3874 51.8295 33.3136 51.5 33.1658 51.2102C33.021 50.9205 32.8136 50.6918 32.5437 50.5241C32.2766 50.3565 31.9613 50.2727 31.5977 50.2727C31.1971 50.2727 30.8505 50.3722 30.5579 50.571C30.2681 50.767 30.0451 51.0227 29.8888 51.3381C29.7326 51.6534 29.6545 51.9915 29.6545 52.3523V52.9318C29.6545 53.4261 29.7397 53.8452 29.9102 54.1889C30.0835 54.5298 30.3235 54.7898 30.6303 54.9688C30.9371 55.1449 31.2937 55.233 31.6999 55.233C31.9641 55.233 32.2028 55.196 32.4158 55.1222C32.6317 55.0455 32.8178 54.9318 32.9741 54.7812C33.1303 54.6278 33.2511 54.4375 33.3363 54.2102L34.3079 54.483C34.2056 54.8125 34.0337 55.1023 33.7923 55.3523C33.5508 55.5994 33.2525 55.7926 32.8974 55.9318C32.5423 56.0682 32.1431 56.1364 31.6999 56.1364ZM36.5142 49.4545L38.0824 52.1307L39.6506 49.4545H40.8097L38.696 52.7273L40.8097 56H39.6506L38.0824 53.4602L36.5142 56H35.3551L37.4347 52.7273L35.3551 49.4545H36.5142ZM45.0913 49.4545V50.3068H41.6992V49.4545H45.0913ZM42.6879 47.8864H43.6935V54.125C43.6935 54.4091 43.7347 54.6222 43.8171 54.7642C43.9023 54.9034 44.0103 54.9972 44.141 55.0455C44.2745 55.0909 44.4151 55.1136 44.5629 55.1136C44.6737 55.1136 44.7646 55.108 44.8356 55.0966C44.9066 55.0824 44.9634 55.071 45.006 55.0625L45.2106 55.9659C45.1424 55.9915 45.0472 56.017 44.9251 56.0426C44.8029 56.071 44.6481 56.0852 44.4606 56.0852C44.1765 56.0852 43.8981 56.0241 43.6254 55.902C43.3555 55.7798 43.131 55.5938 42.9521 55.3438C42.7759 55.0938 42.6879 54.7784 42.6879 54.3977V47.8864Z" fill="black"/>
    </svg>
    